<?xml version="1.0" encoding="UTF-8" standalone="no"?>
<!DOCTYPE svg PUBLIC "-//W3C//DTD SVG 1.1//EN"
 "http://www.w3.org/Graphics/SVG/1.1/DTD/svg11.dtd">
<!-- Generated by graphviz version 2.30.1 (20150306.0020)
 -->
<!-- Title: firstSteps Pages: 1 -->
<svg width="310pt" height="188pt"
 viewBox="0.00 0.00 310.00 188.00" xmlns="http://www.w3.org/2000/svg" xmlns:xlink="http://www.w3.org/1999/xlink">
<g id="graph0" class="graph" transform="scale(1 1) rotate(0) translate(4 184)">
<title>firstSteps</title>
<polygon fill="white" stroke="white" points="-4,5 -4,-184 307,-184 307,5 -4,5"/>
<!-- call bwaSamtools -->
<g id="node1" class="node"><title>call bwaSamtools</title>
<ellipse fill="none" stroke="black" cx="118" cy="-162" rx="73.1654" ry="18"/>
<text text-anchor="middle" x="118" y="-158.3" font-family="Times,serif" font-size="14.00">call bwaSamtools</text>
</g>
<!-- call sambambaMarkDupIndex -->
<g id="node2" class="node"><title>call sambambaMarkDupIndex</title>
<ellipse fill="none" stroke="black" cx="118" cy="-90" rx="118.409" ry="18"/>
<text text-anchor="middle" x="118" y="-86.3" font-family="Times,serif" font-size="14.00">call sambambaMarkDupIndex</text>
</g>
<!-- call bwaSamtools&#45;&gt;call sambambaMarkDupIndex -->
<g id="edge1" class="edge"><title>call bwaSamtools&#45;&gt;call sambambaMarkDupIndex</title>
<path fill="none" stroke="black" d="M118,-143.697C118,-135.983 118,-126.712 118,-118.112"/>
<polygon fill="black" stroke="black" points="121.5,-118.104 118,-108.104 114.5,-118.104 121.5,-118.104"/>
</g>
<!-- call sambambaFlagStat -->
<g id="node3" class="node"><title>call sambambaFlagStat</title>
<ellipse fill="none" stroke="black" cx="118" cy="-18" rx="93.3873" ry="18"/>
<text text-anchor="middle" x="118" y="-14.3" font-family="Times,serif" font-size="14.00">call sambambaFlagStat</text>
</g>
<!-- call sambambaMarkDupIndex&#45;&gt;call sambambaFlagStat -->
<g id="edge2" class="edge"><title>call sambambaMarkDupIndex&#45;&gt;call sambambaFlagStat</title>
<path fill="none" stroke="black" d="M118,-71.6966C118,-63.9827 118,-54.7125 118,-46.1124"/>
<polygon fill="black" stroke="black" points="121.5,-46.1043 118,-36.1043 114.5,-46.1044 121.5,-46.1043"/>
</g>
<!-- call fastqc -->
<g id="node4" class="node"><title>call fastqc</title>
<ellipse fill="none" stroke="black" cx="256" cy="-162" rx="46.1964" ry="18"/>
<text text-anchor="middle" x="256" y="-158.3" font-family="Times,serif" font-size="14.00">call fastqc</text>
</g>
</g>
</svg>
